<svg id="Layer_1" data-name="Layer 1" xmlns="http://www.w3.org/2000/svg" xmlns:xlink="http://www.w3.org/1999/xlink" viewBox="0 0 841.9 327.6"><defs><style>.cls-1{fill:url(#linear-gradient);}.cls-2{fill:#edf5f2;}.cls-3{fill:#cdb2ff;}.cls-4{fill:none;stroke:#d5e2e8;stroke-miterlimit:10;stroke-width:2px;}</style><linearGradient id="linear-gradient" x1="374.02" y1="107.85" x2="568.93" y2="340.14" gradientUnits="userSpaceOnUse"><stop offset="0" stop-color="#4458dc"/><stop offset="1" stop-color="#b721ff"/></linearGradient></defs><rect class="cls-1" width="841.9" height="327.55"/><ellipse class="cls-2" cx="161.5" cy="72.9" rx="19.9" ry="26.5"/><circle class="cls-3" cx="201.5" cy="54.8" r="15.1"/><path class="cls-4" d="M770.5,273v2.8h-8.3v-3.2a10.6,10.6,0,0,1-4.4-10.1c.5-4.1,3.8-8.6,8.4-8.6s7.9,4.7,8.6,8.6C775.7,268.6,770.8,272.8,770.5,273Z" transform="translate(0 -108.5)"/><path class="cls-4" d="M770.4,275.8c0,1.4-.2,5.2-.2,5.3h-8c0-.1-.1-3.7-.1-5.3Z" transform="translate(0 -108.5)"/></svg>